<mxfile host="65bd71144e">
    <diagram id="iVekBcb1NkvXeIllcZU1" name="Page-1">
        <mxGraphModel dx="1189" dy="524" grid="1" gridSize="10" guides="1" tooltips="1" connect="1" arrows="1" fold="1" page="1" pageScale="1" pageWidth="850" pageHeight="1100" math="0" shadow="0">
            <root>
                <mxCell id="0"/>
                <mxCell id="1" parent="0"/>
                <mxCell id="PwDbV6gPuvDHj0Wz_XX9-1" value="COMPLIANCE_ANALYSIS&#10;--------------------------------------&#10;entity_id: VARCHAR&#10;entity_type: VARCHAR&#10;disposition: VARCHAR&#10;status: VARCHAR&#10;create_date: TIMESTAMP&#10;update_date: TIMESTAMP&#10;disposition_date: TIMESTAMP" style="rounded=1;whiteSpace=wrap;html=1;fillColor=#d5e8d4;align=left;" vertex="1" parent="1">
                    <mxGeometry x="20" y="20" width="300" height="180" as="geometry"/>
                </mxCell>
                <mxCell id="PwDbV6gPuvDHj0Wz_XX9-2" value="AUDIT_SERVICE&#10;--------------------------------------&#10;asset: VARCHAR&#10;action: VARCHAR&#10;created_at: TIMESTAMP" style="rounded=1;whiteSpace=wrap;html=1;fillColor=#dae8fc;align=left;" vertex="1" parent="1">
                    <mxGeometry x="340" y="20" width="300" height="180" as="geometry"/>
                </mxCell>
                <mxCell id="PwDbV6gPuvDHj0Wz_XX9-3" value="OPERATIONS_CASE_INFO&#10;--------------------------------------&#10;case_id: VARCHAR&#10;operation_id: VARCHAR&#10;metadata: TEXT" style="rounded=1;whiteSpace=wrap;html=1;fillColor=#fce5cd;align=left;" vertex="1" parent="1">
                    <mxGeometry x="660" y="20" width="300" height="180" as="geometry"/>
                </mxCell>
                <mxCell id="PwDbV6gPuvDHj0Wz_XX9-4" value="INSTITUTIONS&#10;--------------------------------------&#10;institution_id: VARCHAR&#10;name: VARCHAR&#10;type: VARCHAR" style="rounded=1;whiteSpace=wrap;html=1;fillColor=#ead1dc;align=left;" vertex="1" parent="1">
                    <mxGeometry x="20" y="220" width="300" height="180" as="geometry"/>
                </mxCell>
                <mxCell id="PwDbV6gPuvDHj0Wz_XX9-5" value="TAGS&#10;--------------------------------------&#10;tag_id: VARCHAR&#10;entity_id: VARCHAR&#10;tag: VARCHAR" style="rounded=1;whiteSpace=wrap;html=1;fillColor=#c2dfff;align=left;" vertex="1" parent="1">
                    <mxGeometry x="340" y="220" width="300" height="180" as="geometry"/>
                </mxCell>
                <mxCell id="PwDbV6gPuvDHj0Wz_XX9-6" value="CASE_CONTENTS&#10;--------------------------------------&#10;content_id: VARCHAR&#10;case_id: VARCHAR&#10;content: TEXT" style="rounded=1;whiteSpace=wrap;html=1;fillColor=#f8cecc;align=left;" vertex="1" parent="1">
                    <mxGeometry x="660" y="220" width="300" height="180" as="geometry"/>
                </mxCell>
                <mxCell id="PwDbV6gPuvDHj0Wz_XX9-7" value="ALERT_CONTENTS&#10;--------------------------------------&#10;alert_id: VARCHAR&#10;alert_type: VARCHAR&#10;created_at: TIMESTAMP" style="rounded=1;whiteSpace=wrap;html=1;fillColor=#d5e8d4;align=left;" vertex="1" parent="1">
                    <mxGeometry x="20" y="420" width="300" height="180" as="geometry"/>
                </mxCell>
                <mxCell id="PwDbV6gPuvDHj0Wz_XX9-8" style="edgeStyle=orthogonalEdgeStyle;endArrow=classic;html=1;" edge="1" parent="1" source="PwDbV6gPuvDHj0Wz_XX9-2" target="PwDbV6gPuvDHj0Wz_XX9-1">
                    <mxGeometry relative="1" as="geometry"/>
                </mxCell>
                <mxCell id="PwDbV6gPuvDHj0Wz_XX9-9" style="edgeStyle=orthogonalEdgeStyle;endArrow=classic;html=1;" edge="1" parent="1" source="PwDbV6gPuvDHj0Wz_XX9-3" target="PwDbV6gPuvDHj0Wz_XX9-1">
                    <mxGeometry relative="1" as="geometry"/>
                </mxCell>
                <mxCell id="PwDbV6gPuvDHj0Wz_XX9-10" style="edgeStyle=orthogonalEdgeStyle;endArrow=classic;html=1;" edge="1" parent="1" source="PwDbV6gPuvDHj0Wz_XX9-4" target="PwDbV6gPuvDHj0Wz_XX9-1">
                    <mxGeometry relative="1" as="geometry"/>
                </mxCell>
                <mxCell id="PwDbV6gPuvDHj0Wz_XX9-11" style="edgeStyle=orthogonalEdgeStyle;endArrow=classic;html=1;" edge="1" parent="1" source="PwDbV6gPuvDHj0Wz_XX9-5" target="PwDbV6gPuvDHj0Wz_XX9-1">
                    <mxGeometry relative="1" as="geometry"/>
                </mxCell>
                <mxCell id="PwDbV6gPuvDHj0Wz_XX9-12" style="edgeStyle=orthogonalEdgeStyle;endArrow=classic;html=1;" edge="1" parent="1" source="PwDbV6gPuvDHj0Wz_XX9-6" target="PwDbV6gPuvDHj0Wz_XX9-1">
                    <mxGeometry relative="1" as="geometry"/>
                </mxCell>
                <mxCell id="PwDbV6gPuvDHj0Wz_XX9-13" style="edgeStyle=orthogonalEdgeStyle;endArrow=classic;html=1;" edge="1" parent="1" source="PwDbV6gPuvDHj0Wz_XX9-7" target="PwDbV6gPuvDHj0Wz_XX9-1">
                    <mxGeometry relative="1" as="geometry"/>
                </mxCell>
            </root>
        </mxGraphModel>
    </diagram>
</mxfile>